<?xml version="1.0" encoding="UTF-8"?>
<svg width="24px" height="24px" viewBox="0 0 24 24" stroke-width="1.5" fill="none" xmlns="http://www.w3.org/2000/svg" color="#fbbf24">
  <path d="M12 21V7a2 2 0 0 1 2-2h7a2 2 0 0 1 2 2v12a2 2 0 0 1-2 2h-7a2 2 0 0 1-2-2z" stroke="#fbbf24" stroke-width="1.5"/>
  <path d="M12 21V7a2 2 0 0 0-2-2H3a2 2 0 0 0-2 2v12a2 2 0 0 0 2 2h7a2 2 0 0 0 2-2z" stroke="#fbbf24" stroke-width="1.5"/>
  <path d="M5.5 7.5V11" stroke="#fbbf24" stroke-width="1.5" stroke-linecap="round"/>
  <path d="M18.5 7.5V11" stroke="#fbbf24" stroke-width="1.5" stroke-linecap="round"/>
  <path d="M3 15h7" stroke="#fbbf24" stroke-width="1.5"/>
  <path d="M14 15h7" stroke="#fbbf24" stroke-width="1.5"/>
</svg>